<?xml version="1.0" standalone="no"?>
<!DOCTYPE svg PUBLIC "-//W3C//DTD SVG 20010904//EN"
 "http://www.w3.org/TR/2001/REC-SVG-20010904/DTD/svg10.dtd">
<svg version="1.0" xmlns="http://www.w3.org/2000/svg"
 width="700.000000pt" height="700.000000pt" viewBox="0 0 700.000000 700.000000"
 preserveAspectRatio="xMidYMid meet">
<metadata>
Created by potrace 1.11, written by Peter Selinger 2001-2013
</metadata>
<g transform="translate(0.000000,700.000000) scale(0.100000,-0.100000)"
fill="#000000" stroke="none">
<path d="M721 4533 c18 -32 59 -102 91 -156 32 -55 58 -100 58 -102 0 -2 59
-103 130 -226 72 -122 130 -224 130 -226 0 -1 17 -31 38 -65 21 -35 52 -88 69
-118 26 -47 103 -181 366 -635 22 -38 51 -87 64 -107 12 -21 23 -39 23 -41 0
-2 56 -100 124 -218 l124 -213 311 -1 312 0 268 465 c148 256 278 481 289 500
31 52 143 247 175 305 16 27 50 86 76 130 48 79 299 515 341 591 41 73 72 124
75 124 4 0 -190 -425 -211 -463 l-15 -27 1221 2 1221 3 154 268 154 267 -1562
0 -1562 0 -20 -37 c-11 -21 -27 -49 -36 -63 -9 -14 -98 -167 -198 -340 -100
-173 -188 -326 -196 -340 -8 -14 -130 -225 -271 -470 -140 -245 -270 -470
-288 -500 -18 -30 -70 -121 -117 -202 -46 -81 -85 -145 -86 -144 -2 2 22 57
53 122 31 65 68 146 84 179 15 33 45 98 67 145 22 47 37 90 33 95 -4 6 -24 42
-45 80 -21 39 -44 77 -51 86 -8 8 -14 19 -14 22 0 4 -18 36 -40 72 -22 36 -40
68 -40 71 0 3 -16 30 -35 60 -19 30 -35 56 -35 58 0 3 -53 96 -118 208 -65
111 -130 223 -144 248 -14 25 -90 158 -170 295 -80 138 -158 274 -174 302
l-29 53 -313 0 -313 0 32 -57z"/>
<path d="M5348 4003 c-8 -10 -29 -43 -45 -73 -17 -30 -72 -126 -122 -213 -51
-87 -94 -163 -97 -170 -3 -9 68 -12 306 -11 171 1 312 3 314 5 2 2 55 94 118
204 63 110 125 217 138 238 l22 37 -309 0 c-283 0 -311 -2 -325 -17z"/>
<path d="M3773 3441 c-20 -36 -41 -67 -45 -69 -4 -2 -8 -8 -8 -13 0 -6 -49
-94 -109 -197 -99 -172 -291 -504 -382 -662 -20 -36 -33 -67 -29 -70 10 -6
608 -6 613 1 2 2 75 128 162 279 87 151 204 354 260 450 56 96 116 201 134
233 18 31 34 57 36 57 2 0 -15 -42 -39 -92 -44 -95 -64 -137 -135 -292 -23
-49 -39 -91 -37 -94 6 -5 1175 -6 1180 -1 4 5 131 224 233 402 40 70 73 129
73 132 0 2 -421 4 -935 4 l-935 -1 -37 -67z"/>
</g>
</svg>
